{"title":"Kid.Cannabis.2014.720p.HDRip.XviD.AC3-Insane098","uid":9991768,"size":4900983698,"categoryP":"video","categoryS":"hd___movies","magnet":"?xt=urn:btih:a6ee228a282747def439ba85f41ba14d06561d37&amp;dn=Kid.Cannabis.2014.720p.HDRip.XviD.AC3-Insane098&amp;tr=udp%3A%2F%2Ftracker.openbittorrent.com%3A80&amp;tr=udp%3A%2F%2Fopen.demonii.com%3A1337&amp;tr=udp%3A%2F%2Ftracker.coppersurfer.tk%3A6969&amp;tr=udp%3A%2F%2Fexodus.desync.com%3A6969","seeders":2,"leechers":2,"uploader":"098765432","files":-1,"time":1397858091,"description":"Plot:\nAn eighteen year old high school drop out and his twenty-seven year old friend start trafficking marijuana across the border of Canada in order to make money and their lives are changed forever.\n\nScreenshots: &lt;a href=&quot;\nhttp://i1186.photobucket.com/albums/z372/Insane098/Screenshots/Screenshot1.png&quot; rel=&quot;nofollow&quot; target=&quot;_NEW&quot;&gt;\nhttp://i1186.photobucket.com/albums/z372/Insane098/Screenshots/Screenshot1.png&lt;/a&gt; &lt;a href=&quot;\nhttp://i1186.photobucket.com/albums/z372/Insane098/Screenshots/Screenshot2.png&quot; rel=&quot;nofollow&quot; target=&quot;_NEW&quot;&gt;\nhttp://i1186.photobucket.com/albums/z372/Insane098/Screenshots/Screenshot2.png&lt;/a&gt;\n\nGeneral\nComplete name                            : Kid.Cannabis.2014.720p.HDRip.XviD.AC3-Insane098.avi\nFormat                                   : AVI\nFormat/Info                              : Audio Video Interleave\nFormat profile                           : OpenDML\nFile size                                : 4.56 GiB\nDuration                                 : 1h 49mn\nOverall bit rate                         : 5 957 Kbps\nWriting application                      : Lavf55.33.100\n\nVideo\nID                                       : 0\nFormat                                   : MPEG-4 Visual\nFormat profile                           : Advanced Simple@L5\nFormat settings, BVOP                    : No\nFormat settings, QPel                    : No\nFormat settings, GMC                     : No warppoints\nFormat settings, Matrix                  : Default (H.263)\nCodec ID                                 : XVID\nCodec ID/Hint                            : XviD\nDuration                                 : 1h 49mn\nBit rate                                 : 5 565 Kbps\nWidth                                    : 1 280 pixels\nHeight                                   : 720 pixels\nDisplay aspect ratio                     : 1.85:1\nFrame rate                               : 23.976 fps\nColor space                              : YUV\nChroma subsampling                       : 4:2:0\nBit depth                                : 8 bits\nScan type                                : Progressive\nCompression mode                         : Lossy\nBits/(Pixel*Frame)                       : 0.252\nStream size                              : 4.26 GiB (93%)\nWriting library                          : XviD 65\n\nAudio\nID                                       : 1\nFormat                                   : AC-3\nFormat/Info                              : Audio Coding 3\nCodec ID                                 : 00001000-0000-0020-8000-00AA00389B71\nDuration                                 : 1h 49mn\nBit rate                                 : 384 Kbps\nChannel count                            : 6 channels\nChannel positions                        : Front: L C R, Side: L R, LFE\nSampling rate                            : 44.1 KHz\nBit depth                                : 16 bits\nCompression mode                         : Lossy\nStream size                              : 301 MiB (6%)\nInterleave, duration                     : 35 ms (0.84 video frame)","torrent":{"xt":"urn:btih:a6ee228a282747def439ba85f41ba14d06561d37","amp;dn":"Kid.Cannabis.2014.720p.HDRip.XviD.AC3-Insane098","amp;tr":["udp%3A%2F%2Ftracker.openbittorrent.com%3A80","udp%3A%2F%2Fopen.demonii.com%3A1337","udp%3A%2F%2Ftracker.coppersurfer.tk%3A6969","udp%3A%2F%2Fexodus.desync.com%3A6969"],"infoHash":"a6ee228a282747def439ba85f41ba14d06561d37","infoHashBuffer":{"type":"Buffer","data":[166,238,34,138,40,39,71,222,244,57,186,133,244,27,161,77,6,86,29,55]},"announce":[],"urlList":[]}}